<?xml version="1.0" encoding="UTF-8" standalone="no"?>
<!DOCTYPE svg PUBLIC "-//W3C//DTD SVG 1.1//EN"
 "http://www.w3.org/Graphics/SVG/1.1/DTD/svg11.dtd">
<!-- Generated by graphviz version 12.2.1 (20241206.2353)
 -->
<!-- Title: AI_Powered_Content_Moderation_Pipeline Pages: 1 -->
<svg width="720pt" height="356pt"
 viewBox="0.00 0.00 720.00 355.62" xmlns="http://www.w3.org/2000/svg" xmlns:xlink="http://www.w3.org/1999/xlink">
<g id="graph0" class="graph" transform="scale(0.478343 0.478343) rotate(0) translate(4 739.44)">
<title>AI_Powered_Content_Moderation_Pipeline</title>
<polygon fill="white" stroke="none" points="-4,4 -4,-739.44 1501.2,-739.44 1501.2,4 -4,4"/>
<g id="clust1" class="cluster">
<title>cluster_storage</title>
<polygon fill="none" stroke="black" stroke-dasharray="5,2" points="819.82,-168.94 819.82,-299.94 1317.82,-299.94 1317.82,-168.94 819.82,-168.94"/>
<text text-anchor="middle" x="1068.82" y="-282.64" font-family="Times New Roman,serif" font-size="14.00">Tiered Storage (Local Simulation)</text>
</g>
<!-- Client -->
<g id="node1" class="node">
<title>Client</title>
<polygon fill="lightblue" stroke="black" points="858.07,-735.44 675.57,-735.44 675.57,-661.44 858.07,-661.44 858.07,-735.44"/>
<text text-anchor="middle" x="766.82" y="-718.14" font-family="Times New Roman,serif" font-size="14.00">Client </text>
<text text-anchor="middle" x="766.82" y="-701.64" font-family="Times New Roman,serif" font-size="14.00">(TUS Upload/Download,</text>
<text text-anchor="middle" x="766.82" y="-685.14" font-family="Times New Roman,serif" font-size="14.00">Resume Support,</text>
<text text-anchor="middle" x="766.82" y="-668.64" font-family="Times New Roman,serif" font-size="14.00">Auth w/ JWT or Signed URL)</text>
</g>
<!-- Nginx -->
<g id="node2" class="node">
<title>Nginx</title>
<polygon fill="lightyellow" stroke="black" points="829.94,-608.94 703.69,-608.94 703.69,-534.94 829.94,-534.94 829.94,-608.94"/>
<text text-anchor="middle" x="766.82" y="-591.64" font-family="Times New Roman,serif" font-size="14.00">Nginx Gateway</text>
<text text-anchor="middle" x="766.82" y="-575.14" font-family="Times New Roman,serif" font-size="14.00">(Routing, SSL/TLS,</text>
<text text-anchor="middle" x="766.82" y="-558.64" font-family="Times New Roman,serif" font-size="14.00">Rate Limit,</text>
<text text-anchor="middle" x="766.82" y="-542.14" font-family="Times New Roman,serif" font-size="14.00">Load Balancing)</text>
</g>
<!-- Client&#45;&gt;Nginx -->
<g id="edge1" class="edge">
<title>Client&#45;&gt;Nginx</title>
<path fill="none" stroke="black" d="M766.82,-661.09C766.82,-648.44 766.82,-634.04 766.82,-620.6"/>
<polygon fill="black" stroke="black" points="770.32,-620.63 766.82,-610.63 763.32,-620.63 770.32,-620.63"/>
<text text-anchor="middle" x="857.57" y="-630.14" font-family="Times New Roman,serif" font-size="14.00">TUS Upload/Download Requests</text>
</g>
<!-- GoServer -->
<g id="node3" class="node">
<title>GoServer</title>
<polygon fill="lightgrey" stroke="black" points="855.07,-482.44 678.57,-482.44 678.57,-358.94 855.07,-358.94 855.07,-482.44"/>
<text text-anchor="middle" x="766.82" y="-465.14" font-family="Times New Roman,serif" font-size="14.00">Go Service</text>
<text text-anchor="middle" x="766.82" y="-448.64" font-family="Times New Roman,serif" font-size="14.00">&#45; TUS Protocol Handling</text>
<text text-anchor="middle" x="766.82" y="-432.14" font-family="Times New Roman,serif" font-size="14.00">&#45; Chunked Upload + Resume</text>
<text text-anchor="middle" x="766.82" y="-415.64" font-family="Times New Roman,serif" font-size="14.00">&#45; Range Download Support</text>
<text text-anchor="middle" x="766.82" y="-399.14" font-family="Times New Roman,serif" font-size="14.00">&#45; Progress Tracking</text>
<text text-anchor="middle" x="766.82" y="-382.64" font-family="Times New Roman,serif" font-size="14.00">&#45; Tier Migration Logic</text>
<text text-anchor="middle" x="766.82" y="-366.14" font-family="Times New Roman,serif" font-size="14.00">&#45; Auth Validation</text>
</g>
<!-- Nginx&#45;&gt;GoServer -->
<g id="edge2" class="edge">
<title>Nginx&#45;&gt;GoServer</title>
<path fill="none" stroke="black" d="M766.82,-534.81C766.82,-522.49 766.82,-508.24 766.82,-494.09"/>
<polygon fill="black" stroke="black" points="770.32,-494.33 766.82,-484.33 763.32,-494.33 770.32,-494.33"/>
<text text-anchor="middle" x="803.19" y="-503.64" font-family="Times New Roman,serif" font-size="14.00">Proxy Traffic</text>
</g>
<!-- WebSocket -->
<g id="node4" class="node">
<title>WebSocket</title>
<ellipse fill="lightgreen" stroke="black" cx="98.82" cy="-222.19" rx="98.82" ry="40.66"/>
<text text-anchor="middle" x="98.82" y="-233.64" font-family="Times New Roman,serif" font-size="14.00">WebSocket / Webhook</text>
<text text-anchor="middle" x="98.82" y="-217.14" font-family="Times New Roman,serif" font-size="14.00">(Upload Progress,</text>
<text text-anchor="middle" x="98.82" y="-200.64" font-family="Times New Roman,serif" font-size="14.00">Completion Events)</text>
</g>
<!-- GoServer&#45;&gt;WebSocket -->
<g id="edge4" class="edge">
<title>GoServer&#45;&gt;WebSocket</title>
<path fill="none" stroke="black" d="M678.34,-415.66C505.73,-406.89 137.53,-383.37 99.57,-340.94 83.64,-323.13 82.1,-297.04 85.13,-273.94"/>
<polygon fill="black" stroke="black" points="88.53,-274.82 86.69,-264.39 81.62,-273.69 88.53,-274.82"/>
<text text-anchor="middle" x="162.19" y="-319.39" font-family="Times New Roman,serif" font-size="14.00">Emit Progress Updates</text>
</g>
<!-- Redis -->
<g id="node5" class="node">
<title>Redis</title>
<path fill="orange" stroke="black" d="M1056.57,-113.12C1056.57,-119.37 1010.96,-124.44 954.82,-124.44 898.67,-124.44 853.07,-119.37 853.07,-113.12 853.07,-113.12 853.07,-11.31 853.07,-11.31 853.07,-5.07 898.67,0 954.82,0 1010.96,0 1056.57,-5.07 1056.57,-11.31 1056.57,-11.31 1056.57,-113.12 1056.57,-113.12"/>
<path fill="none" stroke="black" d="M1056.57,-113.12C1056.57,-106.88 1010.96,-101.81 954.82,-101.81 898.67,-101.81 853.07,-106.88 853.07,-113.12"/>
<text text-anchor="middle" x="954.82" y="-90.17" font-family="Times New Roman,serif" font-size="14.00">Redis</text>
<text text-anchor="middle" x="954.82" y="-73.67" font-family="Times New Roman,serif" font-size="14.00">&#45; Metadata (File Paths)</text>
<text text-anchor="middle" x="954.82" y="-57.17" font-family="Times New Roman,serif" font-size="14.00">&#45; Access Counters</text>
<text text-anchor="middle" x="954.82" y="-40.67" font-family="Times New Roman,serif" font-size="14.00">&#45; Upload State</text>
<text text-anchor="middle" x="954.82" y="-24.17" font-family="Times New Roman,serif" font-size="14.00">&#45; Queues (Moderation, Migration)</text>
</g>
<!-- GoServer&#45;&gt;Redis -->
<g id="edge3" class="edge">
<title>GoServer&#45;&gt;Redis</title>
<path fill="none" stroke="black" d="M678.29,-412.79C544.7,-400.25 301.95,-368.41 253.32,-299.94 219.61,-252.47 216.96,-214.41 253.32,-168.94 324.76,-79.59 661.9,-64.24 841.52,-62.55"/>
<polygon fill="black" stroke="black" points="841.37,-66.05 851.34,-62.47 841.31,-59.05 841.37,-66.05"/>
<text text-anchor="middle" x="308.07" y="-225.39" font-family="Times New Roman,serif" font-size="14.00">Track Upload State,</text>
<text text-anchor="middle" x="308.07" y="-208.89" font-family="Times New Roman,serif" font-size="14.00">Update Counters</text>
</g>
<!-- GoServer&#45;&gt;Redis -->
<g id="edge5" class="edge">
<title>GoServer&#45;&gt;Redis</title>
<path fill="none" stroke="black" stroke-dasharray="5,2" d="M678.33,-403.57C579.31,-383.53 428.3,-346.23 394.57,-299.94 360.28,-252.88 357.41,-213.76 394.57,-168.94 450.21,-101.82 694.56,-77.01 841.57,-68.07"/>
<polygon fill="black" stroke="black" points="841.56,-71.57 851.34,-67.49 841.15,-64.59 841.56,-71.57"/>
<text text-anchor="middle" x="455.69" y="-217.14" font-family="Times New Roman,serif" font-size="14.00">Push Moderation Task</text>
</g>
<!-- PythonAI -->
<g id="node6" class="node">
<title>PythonAI</title>
<polygon fill="pink" stroke="black" points="810.07,-259.19 525.57,-259.19 525.57,-185.19 810.07,-185.19 810.07,-259.19"/>
<text text-anchor="middle" x="667.82" y="-241.89" font-family="Times New Roman,serif" font-size="14.00">Python AI Service (FastAPI)</text>
<text text-anchor="middle" x="667.82" y="-225.39" font-family="Times New Roman,serif" font-size="14.00">&#45; Text Moderation (Transformers)</text>
<text text-anchor="middle" x="667.82" y="-208.89" font-family="Times New Roman,serif" font-size="14.00">&#45; Image/Video Moderation (OpenCV + PyTorch)</text>
<text text-anchor="middle" x="667.82" y="-192.39" font-family="Times New Roman,serif" font-size="14.00">&#45; Pre/Post Processing</text>
</g>
<!-- GoServer&#45;&gt;PythonAI -->
<g id="edge6" class="edge">
<title>GoServer&#45;&gt;PythonAI</title>
<path fill="none" stroke="black" d="M678.09,-409.38C634.75,-399.37 586.29,-379.67 559.57,-340.94 541.21,-314.33 561.93,-287.57 589.98,-266.31"/>
<polygon fill="black" stroke="black" points="592.01,-269.16 598.08,-260.49 587.92,-263.48 592.01,-269.16"/>
<text text-anchor="middle" x="652.19" y="-327.64" font-family="Times New Roman,serif" font-size="14.00">Send File/Content for Moderation</text>
<text text-anchor="middle" x="652.19" y="-311.14" font-family="Times New Roman,serif" font-size="14.00">(via Nginx Proxy)</text>
</g>
<!-- CDN -->
<g id="node7" class="node">
<title>CDN</title>
<polygon fill="lightgreen" stroke="black" points="971.57,-267.44 968.57,-271.44 947.57,-271.44 944.57,-267.44 828.07,-267.44 828.07,-176.94 971.57,-176.94 971.57,-267.44"/>
<text text-anchor="middle" x="899.82" y="-250.14" font-family="Times New Roman,serif" font-size="14.00">CDN Tier</text>
<text text-anchor="middle" x="899.82" y="-233.64" font-family="Times New Roman,serif" font-size="14.00">&#45; Hot Files</text>
<text text-anchor="middle" x="899.82" y="-217.14" font-family="Times New Roman,serif" font-size="14.00">&#45; Direct Disk Access</text>
<text text-anchor="middle" x="899.82" y="-200.64" font-family="Times New Roman,serif" font-size="14.00">&#45; Optional Redis Cache</text>
<text text-anchor="middle" x="899.82" y="-184.14" font-family="Times New Roman,serif" font-size="14.00">(Latency: ~0ms)</text>
</g>
<!-- GoServer&#45;&gt;CDN -->
<g id="edge8" class="edge">
<title>GoServer&#45;&gt;CDN</title>
<path fill="none" stroke="black" d="M855.54,-360.01C861.2,-354.02 866.4,-347.65 870.82,-340.94 882.88,-322.61 889.93,-299.7 894.04,-278.96"/>
<polygon fill="black" stroke="black" points="897.47,-279.66 895.78,-269.2 890.58,-278.43 897.47,-279.66"/>
<text text-anchor="middle" x="944.81" y="-319.39" font-family="Times New Roman,serif" font-size="14.00">Store/Serve Hot Files</text>
</g>
<!-- S3 -->
<g id="node8" class="node">
<title>S3</title>
<polygon fill="lightgrey" stroke="black" points="1141.69,-259.19 1138.69,-263.19 1117.69,-263.19 1114.69,-259.19 989.94,-259.19 989.94,-185.19 1141.69,-185.19 1141.69,-259.19"/>
<text text-anchor="middle" x="1065.82" y="-241.89" font-family="Times New Roman,serif" font-size="14.00">S3 Tier</text>
<text text-anchor="middle" x="1065.82" y="-225.39" font-family="Times New Roman,serif" font-size="14.00">&#45; Warm Files</text>
<text text-anchor="middle" x="1065.82" y="-208.89" font-family="Times New Roman,serif" font-size="14.00">&#45; Simulated Object Store</text>
<text text-anchor="middle" x="1065.82" y="-192.39" font-family="Times New Roman,serif" font-size="14.00">(Latency: +50–100ms)</text>
</g>
<!-- GoServer&#45;&gt;S3 -->
<g id="edge9" class="edge">
<title>GoServer&#45;&gt;S3</title>
<path fill="none" stroke="black" d="M855.52,-407.68C904.78,-397.13 964.48,-377.45 1006.82,-340.94 1028.22,-322.48 1042.7,-294.41 1051.97,-270.3"/>
<polygon fill="black" stroke="black" points="1055.23,-271.57 1055.34,-260.98 1048.65,-269.18 1055.23,-271.57"/>
<text text-anchor="middle" x="1098.69" y="-319.39" font-family="Times New Roman,serif" font-size="14.00">Store/Serve Warm Files</text>
</g>
<!-- R2 -->
<g id="node9" class="node">
<title>R2</title>
<polygon fill="lightpink" stroke="black" points="1309.94,-259.19 1306.94,-263.19 1285.94,-263.19 1282.94,-259.19 1159.69,-259.19 1159.69,-185.19 1309.94,-185.19 1309.94,-259.19"/>
<text text-anchor="middle" x="1234.82" y="-241.89" font-family="Times New Roman,serif" font-size="14.00">R2 Tier</text>
<text text-anchor="middle" x="1234.82" y="-225.39" font-family="Times New Roman,serif" font-size="14.00">&#45; Cold Files</text>
<text text-anchor="middle" x="1234.82" y="-208.89" font-family="Times New Roman,serif" font-size="14.00">&#45; Simulated Rare Access</text>
<text text-anchor="middle" x="1234.82" y="-192.39" font-family="Times New Roman,serif" font-size="14.00">(Latency: +200–300ms)</text>
</g>
<!-- GoServer&#45;&gt;R2 -->
<g id="edge10" class="edge">
<title>GoServer&#45;&gt;R2</title>
<path fill="none" stroke="black" d="M855.15,-410.97C957.62,-399.4 1118.79,-376.21 1167.82,-340.94 1191.96,-323.57 1208.6,-294.63 1219.25,-269.79"/>
<polygon fill="black" stroke="black" points="1222.37,-271.43 1222.89,-260.85 1215.88,-268.79 1222.37,-271.43"/>
<text text-anchor="middle" x="1259.37" y="-319.39" font-family="Times New Roman,serif" font-size="14.00">Store/Serve Cold Files</text>
</g>
<!-- Redis&#45;&gt;GoServer -->
<g id="edge14" class="edge">
<title>Redis&#45;&gt;GoServer</title>
<path fill="none" stroke="black" stroke-dasharray="5,2" d="M1056.7,-70.33C1156.83,-79.68 1299.48,-100.18 1333.82,-142.44 1389.51,-210.98 1384.37,-275.72 1324.82,-340.94 1265.08,-406.36 1010.63,-418.63 866.84,-420.21"/>
<polygon fill="black" stroke="black" points="866.88,-416.71 856.92,-420.3 866.95,-423.71 866.88,-416.71"/>
<text text-anchor="middle" x="1434.95" y="-225.39" font-family="Times New Roman,serif" font-size="14.00">Trigger Tier Migration</text>
<text text-anchor="middle" x="1434.95" y="-208.89" font-family="Times New Roman,serif" font-size="14.00">via Queue</text>
</g>
<!-- PythonAI&#45;&gt;GoServer -->
<g id="edge7" class="edge">
<title>PythonAI&#45;&gt;GoServer</title>
<path fill="none" stroke="black" d="M708.8,-259.46C722.18,-273.36 735.89,-290.18 744.82,-307.94 750.99,-320.2 755.43,-334.04 758.62,-347.69"/>
<polygon fill="black" stroke="black" points="755.12,-348.02 760.62,-357.08 761.97,-346.57 755.12,-348.02"/>
<text text-anchor="middle" x="811.8" y="-327.64" font-family="Times New Roman,serif" font-size="14.00">Moderation Result</text>
<text text-anchor="middle" x="811.8" y="-311.14" font-family="Times New Roman,serif" font-size="14.00">(Approved/Flagged)</text>
</g>
<!-- CDN&#45;&gt;Redis -->
<g id="edge11" class="edge">
<title>CDN&#45;&gt;Redis</title>
<path fill="none" stroke="black" stroke-dasharray="1,5" d="M873.77,-176.58C870.26,-165.31 869.24,-153.32 873.82,-142.44 875.19,-139.19 876.76,-136.01 878.5,-132.9"/>
<polygon fill="black" stroke="black" points="881.42,-134.83 883.79,-124.5 875.5,-131.09 881.42,-134.83"/>
<text text-anchor="middle" x="944.32" y="-145.64" font-family="Times New Roman,serif" font-size="14.00">Update Access Frequency</text>
</g>
<!-- S3&#45;&gt;Redis -->
<g id="edge12" class="edge">
<title>S3&#45;&gt;Redis</title>
<path fill="none" stroke="black" stroke-dasharray="1,5" d="M1043.01,-184.75C1034.39,-171.31 1024.36,-156.04 1014.82,-142.44 1012.85,-139.63 1010.83,-136.79 1008.77,-133.92"/>
<polygon fill="black" stroke="black" points="1011.7,-132 1002.99,-125.96 1006.03,-136.11 1011.7,-132"/>
<text text-anchor="middle" x="1095.47" y="-145.64" font-family="Times New Roman,serif" font-size="14.00">Update Access Frequency</text>
</g>
<!-- R2&#45;&gt;Redis -->
<g id="edge13" class="edge">
<title>R2&#45;&gt;Redis</title>
<path fill="none" stroke="black" stroke-dasharray="1,5" d="M1211.33,-184.97C1200.22,-170.14 1185.87,-153.82 1169.82,-142.44 1139.38,-120.85 1102.39,-104.45 1067.73,-92.33"/>
<polygon fill="black" stroke="black" points="1069.08,-89.09 1058.49,-89.19 1066.83,-95.72 1069.08,-89.09"/>
<text text-anchor="middle" x="1259.32" y="-145.64" font-family="Times New Roman,serif" font-size="14.00">Update Access Frequency</text>
</g>
</g>
</svg>
